# xmcd CD database file generated by libcdaudio 0.99.6
# 
# Track frame offsets:
#       150
#       20635
#       36207
#       54832
#       67817
#       89940
#       107392
#       131970
#       150467
#       168120
#       181450
#       194775
# 
# Disc length: 2806 seconds
# 
# Revision: 3
# Processed by: cddbd v1.4PL0 Copyright (c) Steve Scherf et al.
# Submitted via: libcdaudio 0.99.6
# 
DISCID=a10af40c
DTITLE=Bruce Willis - If It Don't Kill You , It Just Makes You Stronger
DYEAR=1900
DGENRE=
TTITLE0=Pep Talk
TTITLE1=Crazy Mixed-Up World
TTITLE2=Turn It Up ( A Little Louder )
TTITLE3=Soul Shake
TTITLE4=Here Comes Trouble Again
TTITLE5=Save The Last Dance For Me
TTITLE6=Blues For Mr. D
TTITLE7=Tenth Avenue Tango
TTITLE8=Can't Leave Her Alone
TTITLE9=Barnyard Boogie
TTITLE10=Love Makes The World Go Round
TTITLE11=I'll Go Crazy
EXTD=
EXTT0=
EXTT1=
EXTT2=
EXTT3=
EXTT4=
EXTT5=
EXTT6=
EXTT7=
EXTT8=
EXTT9=
EXTT10=
EXTT11=
PLAYORDER=
